<?xml version="1.0" encoding="UTF-8" standalone="no"?>
<svg
   viewBox="0 0 24 24"
   width="24"
   height="24"
   version="1.1"
   id="svg1"
   sodipodi:docname="movie-icon.svg"
   inkscape:version="1.3.2 (091e20e, 2023-11-25, custom)"
   xmlns:inkscape="http://www.inkscape.org/namespaces/inkscape"
   xmlns:sodipodi="http://sodipodi.sourceforge.net/DTD/sodipodi-0.dtd"
   xmlns="http://www.w3.org/2000/svg"
   xmlns:svg="http://www.w3.org/2000/svg">
  <path
     id="path2-4"
     style="fill:#e6e6e6;stroke:#000000;stroke-width:0;stroke-dasharray:none"
     d="M 1.6191406 0 L 1.6191406 23.882812 L 2.4394531 23.882812 L 2.4394531 22.587891 C 2.4394531 22.035249 2.826664 21.583984 3.3046875 21.583984 L 4.4746094 21.583984 C 4.9526319 21.583984 5.3417969 22.035249 5.3417969 22.587891 L 5.3417969 23.882812 L 6.7421875 23.882812 L 6.7421875 23.521484 C 6.7421875 22.085696 7.5732871 20.917969 8.5957031 20.917969 L 15.476562 20.917969 C 16.498977 20.917969 17.332031 22.085696 17.332031 23.521484 L 17.332031 23.882812 L 18.619141 23.882812 L 18.619141 22.587891 C 18.619141 22.035249 19.008417 21.583984 19.486328 21.583984 L 20.65625 21.583984 C 21.13428 21.583984 21.521484 22.035249 21.521484 22.587891 L 21.521484 23.882812 L 22.263672 23.882812 L 22.263672 0 L 21.521484 0 L 21.521484 1.0078125 C 21.521484 1.5604532 21.13428 2.0097656 20.65625 2.0097656 L 19.486328 2.0097656 C 19.008305 2.0097656 18.619141 1.5604532 18.619141 1.0078125 L 18.619141 0 L 17.332031 0 L 17.332031 0.072265625 C 17.332031 1.5080473 16.498977 2.6777344 15.476562 2.6777344 L 8.5957031 2.6777344 C 7.5732871 2.6777344 6.7421875 1.5080473 6.7421875 0.072265625 L 6.7421875 0 L 5.3417969 0 L 5.3417969 1.0078125 C 5.3417969 1.5604532 4.9525199 2.0097656 4.4746094 2.0097656 L 3.3066406 2.0097656 C 2.8286121 2.0097656 2.4394531 1.5604532 2.4394531 1.0078125 L 2.4394531 0 L 1.6191406 0 z M 3.3066406 3.2402344 L 4.4746094 3.2402344 C 4.9525199 3.2402344 5.3417969 3.6895481 5.3417969 4.2421875 L 5.3417969 5.59375 C 5.3417969 6.1463904 4.9526379 6.5976563 4.4746094 6.5976562 L 3.3066406 6.5976562 C 2.8286111 6.5976562 2.4394531 6.1463904 2.4394531 5.59375 L 2.4394531 4.2421875 C 2.4394531 3.6895481 2.8286111 3.2402344 3.3066406 3.2402344 z M 19.486328 3.2402344 L 20.65625 3.2402344 C 21.13428 3.2402344 21.521484 3.6895471 21.521484 4.2421875 L 21.521484 5.59375 C 21.521484 6.1463894 21.13428 6.5957031 20.65625 6.5957031 L 19.486328 6.5957031 C 19.008417 6.5957031 18.619141 6.1463894 18.619141 5.59375 L 18.619141 4.2421875 C 18.61926 3.6894161 19.008306 3.2402344 19.486328 3.2402344 z M 9.2519531 3.9707031 L 14.820312 3.9707031 C 16.204679 3.9707031 17.332031 5.2741626 17.332031 6.875 L 17.332031 16.720703 C 17.332031 18.321675 16.204679 19.623047 14.820312 19.623047 L 9.2519531 19.623047 C 7.8675885 19.623178 6.7421875 18.321675 6.7421875 16.720703 L 6.7421875 6.875 C 6.7421875 5.2740316 7.8675885 3.9707031 9.2519531 3.9707031 z M 3.3066406 7.8261719 L 4.4746094 7.8261719 C 4.9525199 7.8261719 5.3417969 8.2754846 5.3417969 8.828125 L 5.3417969 10.179688 C 5.3417969 10.732465 4.9526379 11.183594 4.4746094 11.183594 L 3.3066406 11.183594 C 2.8286111 11.183594 2.4394531 10.732327 2.4394531 10.179688 L 2.4394531 8.828125 C 2.4394531 8.2754846 2.8286111 7.8261719 3.3066406 7.8261719 z M 19.486328 7.8261719 L 20.65625 7.8261719 C 21.13428 7.8261719 21.521484 8.2754846 21.521484 8.828125 L 21.521484 10.179688 C 21.521484 10.732327 21.13428 11.183594 20.65625 11.183594 L 19.486328 11.183594 C 19.008417 11.183594 18.619141 10.732327 18.619141 10.179688 L 18.619141 8.828125 C 18.61926 8.2754846 19.008306 7.8261719 19.486328 7.8261719 z M 3.3066406 12.412109 L 4.4746094 12.412109 C 4.9525199 12.412109 5.3417969 12.861422 5.3417969 13.414062 L 5.3417969 14.765625 C 5.3417969 15.318259 4.9526379 15.769531 4.4746094 15.769531 L 3.3066406 15.769531 C 2.8286111 15.769531 2.4394531 15.318259 2.4394531 14.765625 L 2.4394531 13.414062 C 2.4394531 12.861422 2.8286111 12.412109 3.3066406 12.412109 z M 19.486328 12.412109 L 20.65625 12.412109 C 21.13428 12.412109 21.521484 12.861423 21.521484 13.414062 L 21.521484 14.765625 C 21.521484 15.318265 21.13428 15.769531 20.65625 15.769531 L 19.486328 15.769531 C 19.008417 15.769531 18.619141 15.318265 18.619141 14.765625 L 18.619141 13.414062 C 18.61926 12.861423 19.008306 12.412109 19.486328 12.412109 z M 3.3066406 16.998047 L 4.4746094 16.998047 C 4.9525199 16.998047 5.3417969 17.447362 5.3417969 18 L 5.3417969 19.353516 C 5.3417969 19.906156 4.9526379 20.355469 4.4746094 20.355469 L 3.3066406 20.355469 C 2.8286111 20.355469 2.4394531 19.906156 2.4394531 19.353516 L 2.4394531 18 C 2.4394531 17.447362 2.8286111 16.998047 3.3066406 16.998047 z M 19.501953 17.033203 L 20.669922 17.033203 C 21.14795 17.033203 21.537109 17.482518 21.537109 18.035156 L 21.537109 19.386719 C 21.537109 19.939358 21.14795 20.390625 20.669922 20.390625 L 19.501953 20.390625 C 19.024042 20.390625 18.634766 19.939358 18.634766 19.386719 L 18.634766 18.035156 C 18.634885 17.482518 19.02393 17.033203 19.501953 17.033203 z " />
  <defs
     id="defs1" />
  <sodipodi:namedview
     id="namedview1"
     pagecolor="#ffffff"
     bordercolor="#000000"
     borderopacity="0.25"
     inkscape:showpageshadow="2"
     inkscape:pageopacity="0.0"
     inkscape:pagecheckerboard="0"
     inkscape:deskcolor="#d1d1d1"
     inkscape:zoom="56.008749"
     inkscape:cx="14.685206"
     inkscape:cy="15.881447"
     inkscape:window-width="3840"
     inkscape:window-height="2097"
     inkscape:window-x="1272"
     inkscape:window-y="-8"
     inkscape:window-maximized="1"
     inkscape:current-layer="svg1"
     showguides="true">
    <sodipodi:guide
       position="11.516058,6.9669469"
       orientation="0,-1"
       id="guide3"
       inkscape:locked="false" />
    <sodipodi:guide
       position="18.759932,11.131603"
       orientation="1,0"
       id="guide4"
       inkscape:locked="false" />
  </sodipodi:namedview>
</svg>
